DataType=double
version=3
OpenSimVersion=4.2-2021-03-12-fcedec9
endheader
time	ground_force_r_vx	ground_force_r_vy	ground_force_r_vz	ground_force_r_px	ground_force_r_py	ground_force_r_pz	ground_force_l_vx	ground_force_l_vy	ground_force_l_vz	ground_force_l_px	ground_force_l_py	ground_force_l_pz	ground_torque_r_x	ground_torque_r_y	ground_torque_r_z	ground_torque_l_x	ground_torque_l_y	ground_torque_l_z
0.868	-10.51276867486088	4.311928359170229	0	0	0	0	0	0	0	0	0	0	0	0	-0.0834664310575014	0	0	0
0.869438095916634	-26.45542856968067	9.833644502202993	0	0	0	0	0	0	0	0	0	0	0	0	-0.220166162754365	0	0	0
0.870876191833268	-61.4387329282282	21.92404611155184	0	0	0	0	0	0	0	0	0	0	0	0	-0.4817012883879526	0	0	0
0.8723142877499021	-122.5508634392978	43.9032096885393	0	0	0	0	0	0	0	0	0	0	0	0	-0.8342945506397882	0	0	0
0.8737523836665361	-201.051084911808	74.66044411195848	0	0	0	0	0	0	0	0	0	0	0	0	-1.092868882988919	0	0	0
0.8751904795831701	-303.0169538031853	119.9693073160056	0	0	0	0	0	0	0	0	0	0	0	0	-1.145820783330783	0	0	0
0.876628575499804	-482.8765787487041	212.5381946635424	0	0	0	0	0	0	0	0	0	0	0	0	-0.790155717449801	0	0	0
0.878066671416438	-656.7870096619092	342.4711473882293	0	0	0	0	0	0	0	0	0	0	0	0	1.149802518364224	0	0	0
0.879504767333072	-721.2163573416501	471.2638297675967	0	0	0	0	0	0	0	0	0	0	0	0	5.917348934751417	0	0	0
0.8809428632497061	-713.7093146591967	600.4632717165028	0	0	0	0	0	0	0	0	0	0	0	0	15.50224987987192	0	0	0
0.8823809591663401	-710.2805289165575	770.6650253395882	0	0	0	0	0	0	0	0	0	0	0	0	35.43317412394568	0	0	0
0.8838190550829741	-481.4294809924741	1080.852522560198	0	0	0	0	0	0	0	0	0	0	0	0	76.66484225192366	0	0	0
0.8852571509996081	-468.6581925966983	1343.661630232617	0	0	0	0	0	0	0	0	0	0	0	0	109.3852812782911	0	0	0
0.8866952469162421	-420.7551845417294	1436.227516124369	0	0	0	0	0	0	0	0	0	0	0	0	119.3952694743427	0	0	0
0.8881333428328761	-355.659736932277	1435.745985663338	0	0	0	0	0	0	0	0	0	0	0	0	115.2364504946067	0	0	0
0.8895714387495102	-276.6797799818198	1472.007399705276	0	0	0	0	0	0	0	0	0	0	0	0	118.1301957247108	0	0	0
0.8910095346661441	-219.9617232534157	1551.997413841365	0	0	0	0	0	0	0	0	0	0	0	0	130.0226319578835	0	0	0
0.8924476305827781	-150.1977626687354	1635.990188153765	0	0	0	0	0	0	0	0	0	0	0	0	147.2282147581668	0	0	0
0.8938857264994121	-129.6098934878352	1699.648920010536	0	0	0	0	0	0	0	0	0	0	0	0	165.8013854766362	0	0	0
0.8953238224160461	-103.9802825029953	1734.534649585631	0	0	0	0	0	0	0	0	0	0	0	0	184.0536567248996	0	0	0
0.8967619183326802	-119.2490266148767	1748.362290113106	0	0	0	0	0	0	0	0	0	0	0	0	201.2906421571948	0	0	0
0.8982000142493142	-124.7280911922089	1746.43020651601	0	0	0	0	0	0	0	0	0	0	0	0	217.8462563634676	0	0	0
0.8996381101659482	-164.9532895375836	1735.489175516668	0	0	0	0	0	0	0	0	0	0	0	0	233.2497052559361	0	0	0
0.9010762060825822	-186.5209018569563	1719.154358210968	0	0	0	0	0	0	0	0	0	0	0	0	247.8098228256477	0	0	0
0.9025143019992162	-221.676783762685	1698.263656924449	0	0	0	0	0	0	0	0	0	0	0	0	260.332147834907	0	0	0
0.9039523979158502	-244.4299553127317	1676.701345302929	0	0	0	0	0	0	0	0	0	0	0	0	271.4652257241179	0	0	0
0.9053904938324843	-278.1484559206171	1647.831701779054	0	0	0	0	0	0	0	0	0	0	0	0	280.1118725129993	0	0	0
0.9068285897491182	-293.6987523413593	1678.661970475727	0	0	0	0	0	0	0	0	0	0	0	0	288.7185220079224	0	0	0
0.9082666856657522	-297.5587653654304	1685.846943680884	0	0	0	0	0	0	0	0	0	0	0	0	292.8491500108358	0	0	0
0.9097047815823862	-309.0159610687344	1677.557072824283	0	0	0	0	0	0	0	0	0	0	0	0	293.9237400373661	0	0	0
0.9111428774990202	-311.3311773019182	1663.345101222588	0	0	0	0	0	0	0	0	0	0	0	0	293.7542395604829	0	0	0
0.9125809734156543	-310.7669619516627	1649.055277683006	0	0	0	0	0	0	0	0	0	0	0	0	293.265977623529	0	0	0
0.9140190693322883	-302.8495302654071	1639.778236211513	0	0	0	0	0	0	0	0	0	0	0	0	293.5137978858988	0	0	0
0.9154571652489223	-293.2951809062037	1635.388942287253	0	0	0	0	0	0	0	0	0	0	0	0	294.4289516864575	0	0	0
0.9168952611655563	-280.8573049087901	1634.251135510722	0	0	0	0	0	0	0	0	0	0	0	0	295.7922106730822	0	0	0
0.9183333570821903	-267.789103313417	1635.26759289906	0	0	0	0	0	0	0	0	0	0	0	0	297.3932617985546	0	0	0
0.9197714529988243	-253.9325600499936	1639.105209485604	0	0	0	0	0	0	0	0	0	0	0	0	299.3788789789461	0	0	0
0.9212095489154584	-240.3494868773364	1645.089005890588	0	0	0	0	0	0	0	0	0	0	0	0	301.6140727733068	0	0	0
0.9226476448320923	-226.1239645683745	1653.305472849991	0	0	0	0	0	0	0	0	0	0	0	0	304.1587674951257	0	0	0
0.9240857407487263	-212.0198648989403	1663.120315921695	0	0	0	0	0	0	0	0	0	0	0	0	306.8769027923002	0	0	0
0.9255238366653603	-196.9694412684358	1674.130860798483	0	0	0	0	0	0	0	0	0	0	0	0	309.7427009681483	0	0	0
0.9269619325819943	-181.0369051493338	1685.39810970299	0	0	0	0	0	0	0	0	0	0	0	0	312.6223017907502	0	0	0
0.9284000284986283	-164.1492381864591	1696.723509269768	0	0	0	0	0	0	0	0	0	0	0	0	315.5150598018245	0	0	0
0.9298381244152624	-146.6359739227352	1707.566351033819	0	0	0	0	0	0	0	0	0	0	0	0	318.3353729495601	0	0	0
0.9312762203318964	-128.4511946862454	1717.722324744562	0	0	0	0	0	0	0	0	0	0	0	0	321.0653706416197	0	0	0
0.9327143162485304	-109.890243835346	1726.844195196722	0	0	0	0	0	0	0	0	0	0	0	0	323.6432755872383	0	0	0
0.9341524121651644	-90.97632185309635	1734.833997737014	0	0	0	0	0	0	0	0	0	0	0	0	326.0566134499172	0	0	0
0.9355905080817983	-72.09264320091668	1741.648312554479	0	0	0	0	0	0	0	0	0	0	0	0	328.2761236590797	0	0	0
0.9370286039984324	-53.04768586803323	1747.254504189243	0	0	0	0	0	0	0	0	0	0	0	0	330.2998350169964	0	0	0
0.9384666999150664	-33.98081730079763	1751.561159487475	0	0	0	0	0	0	0	0	0	0	0	0	332.1038242131147	0	0	0
0.9399047958317004	-14.85496735035034	1754.600829560779	0	0	0	0	0	0	0	0	0	0	0	0	333.6950386086966	0	0	0
0.9413428917483344	4.243651399172194	1756.318140390596	0	0	0	0	0	0	0	0	0	0	0	0	335.0589903435151	0	0	0
0.9427809876649684	23.33939782218429	1756.720527725166	0	0	0	0	0	0	0	0	0	0	0	0	336.1979852759072	0	0	0
0.9442190835816024	42.32788140704832	1755.790142502146	0	0	0	0	0	0	0	0	0	0	0	0	337.1018895518933	0	0	0
0.9456571794982365	61.25993931275404	1753.507248555528	0	0	0	0	0	0	0	0	0	0	0	0	337.7681446664425	0	0	0
0.9470952754148705	80.1083684527843	1749.80042717919	0	0	0	0	0	0	0	0	0	0	0	0	338.1815356401827	0	0	0
0.9485333713315045	98.83753657041991	1744.653960258514	0	0	0	0	0	0	0	0	0	0	0	0	338.3350941255574	0	0	0
0.9499714672481385	117.3770666999796	1738.028282187694	0	0	0	0	0	0	0	0	0	0	0	0	338.2139661902272	0	0	0
0.9514095631647725	135.7344754208503	1729.856708735604	0	0	0	0	0	0	0	0	0	0	0	0	337.8025283959112	0	0	0
0.9528476590814065	153.8646910205032	1720.053070343045	0	0	0	0	0	0	0	0	0	0	0	0	337.0787066261991	0	0	0
0.9542857549980405	171.7719314435913	1708.511825504226	0	0	0	0	0	0	0	0	0	0	0	0	336.02112429804	0	0	0
0.9557238509146745	189.4514756567374	1695.077115603016	0	0	0	0	0	0	0	0	0	0	0	0	334.6013778907916	0	0	0
0.9571619468313085	206.8405967114384	1679.64763679562	0	0	0	0	0	0	0	0	0	0	0	0	332.7984587683829	0	0	0
0.9586000427479425	223.6531593573286	1662.697956702239	0	0	0	0	0	0	0	0	0	0	0	0	330.6387368744572	0	0	0
0.9600381386645765	240.317187763549	1645.532756312968	0	0	0	0	0	0	0	0	0	0	0	0	328.1982086434098	0	0	0
0.9614762345812106	257.3284700579878	1627.189840701806	0	0	0	0	0	0	0	0	0	0	0	0	325.3728078388796	0	0	0
0.9629143304978446	274.0688454239231	1606.488197117932	0	0	0	0	0	0	0	0	0	0	0	0	322.1311758438248	0	0	0
0.9643524264144786	289.9816993248885	1584.036271083261	0	0	0	0	0	0	0	0	0	0	0	0	318.5601043778622	0	0	0
0.9657905223311126	305.2867110364119	1559.834107857369	0	0	0	0	0	0	0	0	0	0	0	0	314.6619796998067	0	0	0
0.9672286182477465	319.9724371070211	1534.144683882475	0	0	0	0	0	0	0	0	0	0	0	0	310.4830439383243	0	0	0
0.9686667141643805	334.1264414233005	1507.012250469799	0	0	0	0	0	0	0	0	0	0	0	0	306.0390177706237	0	0	0
0.9701048100810146	347.6890813356763	1478.642822611874	0	0	0	0	0	0	0	0	0	0	0	0	301.3648604787283	0	0	0
0.9715429059976486	360.8859638621769	1449.090832541059	0	0	0	0	0	0	0	0	0	0	0	0	296.4906761289163	0	0	0
0.9729810019142826	373.9813256113871	1418.657856928134	0	0	0	0	0	0	0	0	0	0	0	0	291.4972382816961	0	0	0
0.9744190978309166	387.6681753063414	1385.477580241934	0	0	0	0	0	0	0	0	0	0	0	0	286.1107365579531	0	0	0
0.9758571937475506	401.4748829371494	1350.008932400148	0	0	0	0	0	0	0	0	0	0	0	0	280.3875472237192	0	0	0
0.9772952896641847	414.5606616509035	1313.824508608264	0	0	0	0	0	0	0	0	0	0	0	0	274.5444248561224	0	0	0
0.9787333855808187	427.4620710096783	1276.408498939842	0	0	0	0	0	0	0	0	0	0	0	0	268.5427400515595	0	0	0
0.9801714814974527	440.4109088800198	1237.560874177441	0	0	0	0	0	0	0	0	0	0	0	0	262.3788777319191	0	0	0
0.9816095774140867	453.2464164672792	1197.248878945799	0	0	0	0	0	0	0	0	0	0	0	0	256.043686460781	0	0	0
0.9830476733307207	465.4616757492336	1155.678226822808	0	0	0	0	0	0	0	0	0	0	0	0	249.5331010144866	0	0	0
0.9844857692473546	476.7303527749064	1112.591150166039	0	0	0	0	0	0	0	0	0	0	0	0	242.7767912415554	0	0	0
0.9859238651639887	486.2137777345772	1067.702888070253	0	0	0	0	0	0	0	0	0	0	0	0	235.6421817379077	0	0	0
0.9873619610806227	493.0105518638	1020.785026442853	0	0	0	0	0	0	0	0	0	0	0	0	227.9915221095673	0	0	0
0.9888000569972567	496.541395517243	971.2976194347616	0	0	0	0	0	0	0	0	0	0	0	0	219.6644932974832	0	0	0
0.9902381529138907	496.3197463160524	918.4765360084908	0	0	0	0	0	0	0	0	0	0	0	0	210.4736884535109	0	0	0
0.9916762488305247	491.7968090194635	862.1139367977313	0	0	0	0	0	0	0	0	0	0	0	0	200.3161549378898	0	0	0
0.9931143447471588	482.3979123449101	802.4168276822215	0	0	0	0	0	0	0	0	0	0	0	0	189.1480285327009	0	0	0
0.9945524406637928	468.1050524451896	739.7811194444839	0	0	0	0	0	0	0	0	0	0	0	0	177.0212505288856	0	0	0
0.9959905365804267	448.7726784605821	675.2970827588468	0	0	0	0	0	0	0	0	0	0	0	0	164.0738792962943	0	0	0
0.9974286324970607	424.4528321188013	611.6346939878325	0	0	0	0	0	0	0	0	0	0	0	0	150.6918169286237	0	0	0
0.9988667284136947	396.0915941438721	549.9895303277295	0	0	0	0	0	0	0	0	0	0	0	0	137.1437385842576	0	0	0
1.000304824330329	365.4592144050227	489.6078623115535	0	0	0	0	0	0	0	0	0	0	0	0	123.5477000129452	0	0	0
1.001742920246963	332.1703321016187	435.4953686866683	0	0	0	0	0	0	0	0	0	0	0	0	110.5108964227128	0	0	0
1.003181016163597	292.3875889835306	401.2555118352212	0	0	0	0	0	0	0	0	0	0	0	0	99.11712097119823	0	0	0
1.004619112080231	217.5870468264007	356.4892876206321	0	0	0	0	0	0	0	0	0	0	0	0	80.53144538737209	0	0	0
